<svg width="78" height="128" viewBox="0 0 78 128" fill="none" xmlns="http://www.w3.org/2000/svg">
<path opacity="0.996" fill-rule="evenodd" clip-rule="evenodd" d="M34.176 0C34.2614 0 34.3466 0 34.432 0C45.9857 9.66164 57.5483 19.3257 69.12 28.992C71.1493 30.8082 73.1333 32.6642 75.072 34.56C76.3035 36.3768 77.0289 38.3822 77.248 40.576C77.3334 55.936 77.3334 71.296 77.248 86.656C77.104 89.438 76.1014 91.8487 74.24 93.888C60.9616 105.261 47.6922 116.632 34.432 128C34.3466 128 34.2614 128 34.176 128C34.176 122.283 34.176 116.565 34.176 110.848C34.3466 79.488 34.3466 48.128 34.176 16.768C34.176 11.1787 34.176 5.58934 34.176 0Z" fill="#0EACFF"/>
<path opacity="0.997" fill-rule="evenodd" clip-rule="evenodd" d="M34.176 16.7681C34.3466 48.1281 34.3466 79.4881 34.176 110.848C28.0345 115.666 21.8905 120.488 15.744 125.312C15.616 118.955 15.5734 112.598 15.616 106.24C15.616 77.9094 15.616 49.5787 15.616 21.2481C15.5946 15.0186 15.616 8.78924 15.68 2.56006C21.8145 7.34369 27.9799 12.0797 34.176 16.7681Z" fill="#0A7BB5"/>
<path opacity="0.998" fill-rule="evenodd" clip-rule="evenodd" d="M0 10.3679C5.20534 13.9945 10.4107 17.6213 15.616 21.2479C15.616 49.5785 15.616 77.9093 15.616 106.24C10.4107 109.995 5.20534 113.749 0 117.504C0 81.7919 0 46.0799 0 10.3679Z" fill="#085F8C"/>
</svg>
