<?xml version="1.0" encoding="UTF-8"?>
<!DOCTYPE svg PUBLIC "-//W3C//DTD SVG 1.1//EN" "http://www.w3.org/Graphics/SVG/1.1/DTD/svg11.dtd">
<svg xmlns="http://www.w3.org/2000/svg" version="1.1" width="2920px" height="1000px" style="shape-rendering:geometricPrecision; text-rendering:geometricPrecision; image-rendering:optimizeQuality; fill-rule:evenodd; clip-rule:evenodd" xmlns:xlink="http://www.w3.org/1999/xlink">
<g><path style="opacity:0.996" fill="#0eacff" d="M 266.5,-0.5 C 267.167,-0.5 267.833,-0.5 268.5,-0.5C 358.763,74.9816 449.096,150.482 539.5,226C 555.354,240.189 570.854,254.689 586,269.5C 595.621,283.694 601.288,299.361 603,316.5C 603.667,436.5 603.667,556.5 603,676.5C 601.875,698.234 594.042,717.068 579.5,733C 475.762,821.851 372.095,910.685 268.5,999.5C 267.833,999.5 267.167,999.5 266.5,999.5C 266.5,954.833 266.5,910.167 266.5,865.5C 267.833,620.5 267.833,375.5 266.5,130.5C 266.5,86.8333 266.5,43.1667 266.5,-0.5 Z"/></g>
<g><path style="opacity:0.997" fill="#0a7bb5" d="M 266.5,130.5 C 267.833,375.5 267.833,620.5 266.5,865.5C 218.519,903.143 170.519,940.81 122.5,978.5C 121.5,928.838 121.167,879.171 121.5,829.5C 121.5,608.167 121.5,386.833 121.5,165.5C 121.333,116.832 121.5,68.1655 122,19.5C 169.926,56.8721 218.093,93.8721 266.5,130.5 Z"/></g>
<g><path style="opacity:0.998" fill="#085f8c" d="M -0.5,80.5 C 40.1667,108.833 80.8333,137.167 121.5,165.5C 121.5,386.833 121.5,608.167 121.5,829.5C 80.8333,858.833 40.1667,888.167 -0.5,917.5C -0.5,638.5 -0.5,359.5 -0.5,80.5 Z"/></g>
<g><path style="opacity:0.979" fill="#0a243f" d="M 2341.5,249.5 C 2370.86,247.536 2399.53,251.036 2427.5,260C 2471.8,276.132 2499.8,306.966 2511.5,352.5C 2488.16,352.833 2464.82,352.5 2441.5,351.5C 2430.11,330.116 2412.44,316.95 2388.5,312C 2361.26,306.492 2334.6,308.492 2308.5,318C 2268.68,336.147 2253.84,366.647 2264,409.5C 2272.67,431.168 2288.17,445.668 2310.5,453C 2349.46,462.823 2388.46,472.489 2427.5,482C 2505.01,507.154 2536.18,559.987 2521,640.5C 2508.92,685.462 2481.08,716.295 2437.5,733C 2379.29,753.356 2321.62,752.023 2264.5,729C 2228.54,711.54 2204.54,683.706 2192.5,645.5C 2218.17,644.167 2243.83,644.167 2269.5,645.5C 2278.71,661.539 2292.04,672.705 2309.5,679C 2346.02,691.352 2382.02,690.019 2417.5,675C 2452.15,656.11 2464.98,627.276 2456,588.5C 2450.6,570.431 2439.43,557.264 2422.5,549C 2414.73,545.41 2406.73,542.41 2398.5,540C 2366.5,532.667 2334.5,525.333 2302.5,518C 2269.29,509.736 2241.46,492.902 2219,467.5C 2198.09,436.988 2190.43,403.322 2196,366.5C 2204.8,319.392 2230.96,285.892 2274.5,266C 2296.15,257.171 2318.48,251.671 2341.5,249.5 Z M 2302.5,677.5 C 2286.25,671.581 2273.58,661.248 2264.5,646.5C 2265.83,645.167 2267.17,645.167 2268.5,646.5C 2276.71,660.376 2288.04,670.71 2302.5,677.5 Z"/></g>
<g><path style="opacity:0.981" fill="#0a243f" d="M 905.5,258.5 C 970.675,257.092 1036.01,257.258 1101.5,259C 1165.49,263.845 1218.99,289.679 1262,336.5C 1278.63,357.011 1291.8,379.677 1301.5,404.5C 1348.8,392.814 1396.8,385.647 1445.5,383C 1460.93,341.555 1476.26,300.055 1491.5,258.5C 1516.17,257.167 1540.83,257.167 1565.5,258.5C 1582.04,303.459 1598.37,348.459 1614.5,393.5C 1702.78,404.874 1786.95,429.874 1867,468.5C 1893.12,398.649 1918.95,328.649 1944.5,258.5C 1968.83,257.334 1993.16,257.167 2017.5,258C 2076.87,418.268 2135.53,578.768 2193.5,739.5C 2170.49,739.833 2147.49,739.5 2124.5,738.5C 2057.82,669.955 1982.99,612.288 1900,565.5C 1878.83,623.167 1857.67,680.833 1836.5,738.5C 1814.18,739.5 1791.84,739.833 1769.5,739.5C 1793.25,671.998 1817.58,604.664 1842.5,537.5C 1780.24,506.692 1714.74,485.359 1646,473.5C 1645.5,473.833 1645,474.167 1644.5,474.5C 1676.83,562.5 1709.17,650.5 1741.5,738.5C 1718.17,739.833 1694.83,739.833 1671.5,738.5C 1650,680.496 1629,622.33 1608.5,564C 1554.83,563.5 1501.17,563.333 1447.5,563.5C 1426.5,622.167 1405.5,680.833 1384.5,739.5C 1361.83,739.5 1339.17,739.5 1316.5,739.5C 1349.56,646.324 1383.23,553.324 1417.5,460.5C 1405.97,461.093 1394.31,462.26 1382.5,464C 1360.38,467.631 1338.38,471.798 1316.5,476.5C 1321.54,538.695 1307.04,595.695 1273,647.5C 1230.77,702.043 1174.94,732.21 1105.5,738C 1060.35,739.119 1015.18,739.619 970,739.5C 930.5,739.167 891,738.833 851.5,738.5C 928.498,609.341 1035.16,512.841 1171.5,449C 1192.75,439.873 1214.08,431.039 1235.5,422.5C 1212.34,366.221 1170.67,332.721 1110.5,322C 1100.89,320.424 1091.23,319.424 1081.5,319C 1027.5,318.5 973.501,318.333 919.5,318.5C 919.5,298.5 919.5,278.5 919.5,258.5C 914.833,258.5 910.167,258.5 905.5,258.5 Z M 1980.5,336.5 C 2005.81,410.48 2032.31,484.147 2060,557.5C 2064.03,570.261 2068.03,582.928 2072,595.5C 2025.68,558.411 1976.51,525.411 1924.5,496.5C 1940,454.167 1955.5,411.833 1971,369.5C 1974.95,358.699 1978.12,347.699 1980.5,336.5 Z M 1527.5,337.5 C 1528.12,337.611 1528.62,337.944 1529,338.5C 1532.94,353.712 1537.44,368.712 1542.5,383.5C 1532.84,382.921 1523.18,382.421 1513.5,382C 1519.47,367.578 1524.14,352.744 1527.5,337.5 Z M 1486.5,456.5 C 1514.63,455.639 1542.63,457.139 1570.5,461C 1583.64,494.255 1596.31,527.755 1608.5,561.5C 1555.17,562.5 1501.84,562.833 1448.5,562.5C 1460.97,527.102 1473.63,491.769 1486.5,456.5 Z M 1247.5,497.5 C 1249.42,542.573 1236.92,583.24 1210,619.5C 1179.03,654.856 1139.86,674.023 1092.5,677C 1056.83,677.5 1021.17,677.667 985.5,677.5C 985.34,675.801 985.506,674.134 986,672.5C 1059.07,593.291 1146.24,534.957 1247.5,497.5 Z"/></g>
<g><path style="opacity:0.99" fill="#0a243f" d="M 2919.5,341.5 C 2919.5,474.167 2919.5,606.833 2919.5,739.5C 2898.17,739.5 2876.83,739.5 2855.5,739.5C 2855.5,668.167 2855.5,596.833 2855.5,525.5C 2776.5,525.5 2697.5,525.5 2618.5,525.5C 2618.5,596.833 2618.5,668.167 2618.5,739.5C 2596.5,739.5 2574.5,739.5 2552.5,739.5C 2552.5,578.833 2552.5,418.167 2552.5,257.5C 2574.5,257.5 2596.5,257.5 2618.5,257.5C 2618.5,326.5 2618.5,395.5 2618.5,464.5C 2697.5,464.5 2776.5,464.5 2855.5,464.5C 2855.5,423.5 2855.5,382.5 2855.5,341.5C 2876.83,341.5 2898.17,341.5 2919.5,341.5 Z"/></g>
</svg>
